<mxfile host="app.diagrams.net" modified="2023-10-18T16:02:35.379Z" agent="Mozilla/5.0 (X11; Linux x86_64) AppleWebKit/537.36 (KHTML, like Gecko) Chrome/115.0.0.0 Safari/537.36" etag="wu9EUBxE7qG_N4EyvHwG" version="22.0.4" type="github">
  <diagram name="Page-1" id="xCottWoVoQIAtuCJjvQ6">
    <mxGraphModel dx="768" dy="448" grid="1" gridSize="10" guides="1" tooltips="1" connect="1" arrows="1" fold="1" page="1" pageScale="1" pageWidth="827" pageHeight="1169" math="0" shadow="0">
      <root>
        <mxCell id="0" />
        <mxCell id="1" parent="0" />
        <mxCell id="mq7BFtItBwDSEl5OVjlb-2" value="ransno1" style="swimlane;whiteSpace=wrap;html=1;" vertex="1" parent="1">
          <mxGeometry x="180" y="60" width="590" height="530" as="geometry" />
        </mxCell>
        <mxCell id="mq7BFtItBwDSEl5OVjlb-3" value="ens2f1" style="rounded=1;whiteSpace=wrap;html=1;" vertex="1" parent="mq7BFtItBwDSEl5OVjlb-2">
          <mxGeometry x="-20" y="164" width="100" height="30" as="geometry" />
        </mxCell>
        <mxCell id="mq7BFtItBwDSEl5OVjlb-4" value="&amp;lt;&amp;lt; vlan &amp;gt;&amp;gt;&lt;br&gt;ens2f1.1191" style="rounded=1;whiteSpace=wrap;html=1;" vertex="1" parent="mq7BFtItBwDSEl5OVjlb-2">
          <mxGeometry x="-20" y="236" width="100" height="30" as="geometry" />
        </mxCell>
        <mxCell id="mq7BFtItBwDSEl5OVjlb-5" value="&amp;lt;&amp;lt; bridge &amp;gt;&amp;gt;&lt;br&gt;br-fh" style="rounded=1;whiteSpace=wrap;html=1;" vertex="1" parent="mq7BFtItBwDSEl5OVjlb-2">
          <mxGeometry x="163" y="440" width="100" height="30" as="geometry" />
        </mxCell>
        <mxCell id="mq7BFtItBwDSEl5OVjlb-18" style="edgeStyle=orthogonalEdgeStyle;rounded=0;orthogonalLoop=1;jettySize=auto;html=1;exitX=1;exitY=0.5;exitDx=0;exitDy=0;entryX=0;entryY=0.5;entryDx=0;entryDy=0;startArrow=none;startFill=0;endArrow=none;endFill=0;" edge="1" parent="mq7BFtItBwDSEl5OVjlb-2" source="mq7BFtItBwDSEl5OVjlb-6" target="mq7BFtItBwDSEl5OVjlb-5">
          <mxGeometry relative="1" as="geometry" />
        </mxCell>
        <mxCell id="mq7BFtItBwDSEl5OVjlb-6" value="ens3f1.1191" style="rounded=1;whiteSpace=wrap;html=1;" vertex="1" parent="mq7BFtItBwDSEl5OVjlb-2">
          <mxGeometry x="-20" y="306" width="100" height="30" as="geometry" />
        </mxCell>
        <mxCell id="mq7BFtItBwDSEl5OVjlb-14" value="ens3f2.1191" style="rounded=1;whiteSpace=wrap;html=1;" vertex="1" parent="mq7BFtItBwDSEl5OVjlb-2">
          <mxGeometry x="-20" y="346" width="100" height="30" as="geometry" />
        </mxCell>
        <mxCell id="mq7BFtItBwDSEl5OVjlb-17" value="ens3f3.1191" style="rounded=1;whiteSpace=wrap;html=1;" vertex="1" parent="mq7BFtItBwDSEl5OVjlb-2">
          <mxGeometry x="-20" y="386" width="100" height="30" as="geometry" />
        </mxCell>
        <mxCell id="mq7BFtItBwDSEl5OVjlb-19" style="edgeStyle=orthogonalEdgeStyle;rounded=0;orthogonalLoop=1;jettySize=auto;html=1;exitX=1;exitY=0.5;exitDx=0;exitDy=0;startArrow=none;startFill=0;endArrow=none;endFill=0;entryX=0;entryY=0.5;entryDx=0;entryDy=0;" edge="1" parent="mq7BFtItBwDSEl5OVjlb-2" source="mq7BFtItBwDSEl5OVjlb-14" target="mq7BFtItBwDSEl5OVjlb-5">
          <mxGeometry relative="1" as="geometry">
            <mxPoint x="120" y="331" as="sourcePoint" />
            <mxPoint x="160" y="366" as="targetPoint" />
          </mxGeometry>
        </mxCell>
        <mxCell id="mq7BFtItBwDSEl5OVjlb-20" style="edgeStyle=orthogonalEdgeStyle;rounded=0;orthogonalLoop=1;jettySize=auto;html=1;exitX=1;exitY=0.5;exitDx=0;exitDy=0;entryX=0;entryY=0.5;entryDx=0;entryDy=0;startArrow=none;startFill=0;endArrow=none;endFill=0;" edge="1" parent="mq7BFtItBwDSEl5OVjlb-2" source="mq7BFtItBwDSEl5OVjlb-17" target="mq7BFtItBwDSEl5OVjlb-5">
          <mxGeometry relative="1" as="geometry">
            <mxPoint x="130" y="341" as="sourcePoint" />
            <mxPoint x="183" y="381" as="targetPoint" />
          </mxGeometry>
        </mxCell>
        <mxCell id="mq7BFtItBwDSEl5OVjlb-23" style="edgeStyle=orthogonalEdgeStyle;rounded=0;orthogonalLoop=1;jettySize=auto;html=1;entryX=1;entryY=0.5;entryDx=0;entryDy=0;dashed=1;dashPattern=12 12;" edge="1" parent="mq7BFtItBwDSEl5OVjlb-2" source="mq7BFtItBwDSEl5OVjlb-22" target="mq7BFtItBwDSEl5OVjlb-4">
          <mxGeometry relative="1" as="geometry" />
        </mxCell>
        <mxCell id="mq7BFtItBwDSEl5OVjlb-24" style="edgeStyle=orthogonalEdgeStyle;rounded=0;orthogonalLoop=1;jettySize=auto;html=1;entryX=0.5;entryY=0;entryDx=0;entryDy=0;dashed=1;dashPattern=12 12;" edge="1" parent="mq7BFtItBwDSEl5OVjlb-2" source="mq7BFtItBwDSEl5OVjlb-22" target="mq7BFtItBwDSEl5OVjlb-5">
          <mxGeometry relative="1" as="geometry" />
        </mxCell>
        <mxCell id="mq7BFtItBwDSEl5OVjlb-26" value="&amp;lt;&amp;lt; pod &amp;gt;&amp;gt;&lt;br&gt;ptp/vdu4g-2-ptp-ocpsno-0" style="swimlane;whiteSpace=wrap;html=1;startSize=30;" vertex="1" parent="mq7BFtItBwDSEl5OVjlb-2">
          <mxGeometry x="330" y="70" width="200" height="200" as="geometry" />
        </mxCell>
        <mxCell id="mq7BFtItBwDSEl5OVjlb-27" value="&amp;lt;&amp;lt; macvlan &amp;gt;&amp;gt;&lt;br&gt;fh0" style="rounded=1;whiteSpace=wrap;html=1;" vertex="1" parent="mq7BFtItBwDSEl5OVjlb-26">
          <mxGeometry x="-30" y="130" width="100" height="30" as="geometry" />
        </mxCell>
        <mxCell id="mq7BFtItBwDSEl5OVjlb-29" value="fd01:eab:44:1::4" style="text;whiteSpace=wrap;fontFamily=Courier New;fontSize=10;" vertex="1" parent="mq7BFtItBwDSEl5OVjlb-26">
          <mxGeometry x="-130" y="126" width="100" height="30" as="geometry" />
        </mxCell>
        <mxCell id="mq7BFtItBwDSEl5OVjlb-49" value="&amp;lt;&amp;lt; vf &amp;gt;&amp;gt;&lt;br&gt;ens2f1v1" style="rounded=1;whiteSpace=wrap;html=1;" vertex="1" parent="mq7BFtItBwDSEl5OVjlb-26">
          <mxGeometry x="-30" y="94" width="100" height="30" as="geometry" />
        </mxCell>
        <mxCell id="mq7BFtItBwDSEl5OVjlb-28" style="edgeStyle=orthogonalEdgeStyle;rounded=0;orthogonalLoop=1;jettySize=auto;html=1;exitX=0.5;exitY=0;exitDx=0;exitDy=0;entryX=0;entryY=0.5;entryDx=0;entryDy=0;startArrow=none;startFill=0;endArrow=none;endFill=0;" edge="1" parent="mq7BFtItBwDSEl5OVjlb-2" source="mq7BFtItBwDSEl5OVjlb-4" target="mq7BFtItBwDSEl5OVjlb-27">
          <mxGeometry relative="1" as="geometry">
            <mxPoint x="120" y="331" as="sourcePoint" />
            <mxPoint x="300" y="191" as="targetPoint" />
          </mxGeometry>
        </mxCell>
        <mxCell id="mq7BFtItBwDSEl5OVjlb-50" style="edgeStyle=orthogonalEdgeStyle;rounded=0;orthogonalLoop=1;jettySize=auto;html=1;exitX=1;exitY=0.5;exitDx=0;exitDy=0;entryX=0;entryY=0.5;entryDx=0;entryDy=0;startArrow=none;startFill=0;endArrow=none;endFill=0;" edge="1" parent="mq7BFtItBwDSEl5OVjlb-2" source="mq7BFtItBwDSEl5OVjlb-3" target="mq7BFtItBwDSEl5OVjlb-49">
          <mxGeometry relative="1" as="geometry">
            <mxPoint x="40" y="246" as="sourcePoint" />
            <mxPoint x="310" y="225" as="targetPoint" />
          </mxGeometry>
        </mxCell>
        <mxCell id="mq7BFtItBwDSEl5OVjlb-51" value="&amp;lt;&amp;lt; macvlan &amp;gt;&amp;gt;&lt;br&gt;mh0" style="rounded=1;whiteSpace=wrap;html=1;" vertex="1" parent="mq7BFtItBwDSEl5OVjlb-2">
          <mxGeometry x="450" y="200" width="100" height="30" as="geometry" />
        </mxCell>
        <mxCell id="mq7BFtItBwDSEl5OVjlb-54" value="&amp;lt;&amp;lt; pod &amp;gt;&amp;gt;&lt;br&gt;ptp/ptp-gv669" style="swimlane;whiteSpace=wrap;html=1;startSize=30;" vertex="1" parent="mq7BFtItBwDSEl5OVjlb-2">
          <mxGeometry x="320" y="290" width="200" height="110" as="geometry" />
        </mxCell>
        <mxCell id="mq7BFtItBwDSEl5OVjlb-22" value="dhcpd" style="rounded=0;whiteSpace=wrap;html=1;" vertex="1" parent="mq7BFtItBwDSEl5OVjlb-54">
          <mxGeometry x="20" y="56" width="110" height="30" as="geometry" />
        </mxCell>
        <mxCell id="mq7BFtItBwDSEl5OVjlb-58" value="fd01:eab:45:1::1" style="text;whiteSpace=wrap;fontFamily=Courier New;fontSize=10;" vertex="1" parent="mq7BFtItBwDSEl5OVjlb-2">
          <mxGeometry x="153" y="470" width="120" height="40" as="geometry" />
        </mxCell>
        <mxCell id="mq7BFtItBwDSEl5OVjlb-30" value="fd01:eab:44:1::1" style="text;whiteSpace=wrap;fontFamily=Courier New;fontSize=10;" vertex="1" parent="1">
          <mxGeometry x="50" y="300" width="160" height="40" as="geometry" />
        </mxCell>
        <mxCell id="mq7BFtItBwDSEl5OVjlb-52" value="&amp;lt;&amp;lt; vlan &amp;gt;&amp;gt;&lt;br&gt;ens2f0.484" style="rounded=1;whiteSpace=wrap;html=1;" vertex="1" parent="1">
          <mxGeometry x="720" y="340" width="100" height="30" as="geometry" />
        </mxCell>
        <mxCell id="mq7BFtItBwDSEl5OVjlb-53" style="edgeStyle=orthogonalEdgeStyle;rounded=0;orthogonalLoop=1;jettySize=auto;html=1;exitX=0.313;exitY=-0.06;exitDx=0;exitDy=0;entryX=1;entryY=0.5;entryDx=0;entryDy=0;startArrow=none;startFill=0;endArrow=none;endFill=0;exitPerimeter=0;" edge="1" parent="1" source="mq7BFtItBwDSEl5OVjlb-52" target="mq7BFtItBwDSEl5OVjlb-51">
          <mxGeometry relative="1" as="geometry">
            <mxPoint x="220" y="306" as="sourcePoint" />
            <mxPoint x="490" y="285" as="targetPoint" />
          </mxGeometry>
        </mxCell>
      </root>
    </mxGraphModel>
  </diagram>
</mxfile>
